<svg width="200" height="120" viewBox="0 0 200 120" xmlns="http://www.w3.org/2000/svg">
  <defs>
    <linearGradient id="grad2" x1="0%" y1="0%" x2="0%" y2="100%">
      <stop offset="0%" style="stop-color:#000000;stop-opacity:1" />
      <stop offset="100%" style="stop-color:#121212;stop-opacity:1" />
    </linearGradient>
    <radialGradient id="star1" cx="50%" cy="50%" r="50%" fx="50%" fy="50%">
      <stop offset="0%" style="stop-color:white;stop-opacity:1" />
      <stop offset="100%" style="stop-color:white;stop-opacity:0" />
    </radialGradient>
  </defs>
  <rect width="200" height="120" fill="url(#grad2)" />
  
  <!-- Stars -->
  <circle cx="30" cy="20" r="0.8" fill="white" opacity="0.8" />
  <circle cx="50" cy="40" r="0.6" fill="white" opacity="0.7" />
  <circle cx="80" cy="15" r="0.7" fill="white" opacity="0.9" />
  <circle cx="100" cy="35" r="0.5" fill="white" opacity="0.8" />
  <circle cx="130" cy="25" r="0.9" fill="white" opacity="0.7" />
  <circle cx="150" cy="45" r="0.6" fill="white" opacity="0.9" />
  <circle cx="170" cy="30" r="0.7" fill="white" opacity="0.8" />
  <circle cx="20" cy="50" r="0.8" fill="white" opacity="0.7" />
  <circle cx="60" cy="60" r="0.7" fill="white" opacity="0.9" />
  <circle cx="90" cy="70" r="0.6" fill="white" opacity="0.8" />
  <circle cx="120" cy="55" r="0.8" fill="white" opacity="0.7" />
  <circle cx="160" cy="65" r="0.7" fill="white" opacity="0.9" />
  <circle cx="180" cy="75" r="0.9" fill="white" opacity="0.8" />
  <circle cx="40" cy="90" r="0.6" fill="white" opacity="0.7" />
  <circle cx="70" cy="85" r="0.8" fill="white" opacity="0.9" />
  <circle cx="110" cy="95" r="0.7" fill="white" opacity="0.8" />
  <circle cx="140" cy="80" r="0.5" fill="white" opacity="0.7" />
  <circle cx="175" cy="100" r="0.8" fill="white" opacity="0.9" />
  
  <!-- Galaxy cluster -->
  <ellipse cx="120" cy="40" rx="25" ry="15" fill="#4B0082" opacity="0.2" />
  <ellipse cx="70" cy="80" rx="20" ry="10" fill="#800080" opacity="0.1" />
</svg>
